# xmcd
#
# Track frame offsets:
#	150
#	15360
#	28192
#	46307
#	58577
#	70605
#	84842
#	100157
#	113660
#	129257
#	141170
#	160182
#	174007
#	185675
#	203302
#
# Disc length: 2930 seconds
#
# Revision: 1
# Processed by: cddbd v1.5.1PL0 Copyright (c) Steve Scherf et al.
# Submitted via: audiograbber 1.83.01
#
DISCID=af0b700f
DTITLE=Sound Choice - Classic Country Vol.4  8276
DYEAR=1900
DGENRE=
TTITLE0=TEX RITTER - I DREAMED OF A HILLBILLY HEAVEN
TTITLE1=ERNIE ASHWORTH - TALK BACK TREMBLING LIPS
TTITLE2=CAL SMITH - COUNTRY BUMPKIN
TTITLE3=BRENDA LEE - FOOL
TTITLE4=ROGER MILLER - ENGINE ENGINE
TTITLE5=TAMMY WYNETTE and DAVID HOUSTON - MY ELUSIVE DREAMS
TTITLE6=JOHNNY HORTON - THE MANSION YOU STOLE
TTITLE7=TOM T. HALL - THE YEAR THAT CLAYTON DELANEY DIED
TTITLE8=WAYLON JENNINGS - ARE YOU SURE HANK DONE IT THIS WAY
TTITLE9=LEROY VAN DYKE - WALK ON BY
TTITLE10=MARTY ROBBINS - BIG IRON
TTITLE11=JACK GREENE - ALL THE TIME
TTITLE12=DOLLY PARTON - LOVE IS LIKE A BUTTERFLY
TTITLE13=FARON YOUNG - IT´S FOUR IN THE MORNING
TTITLE14=D. PARTON and P. WAGONER - LOST FOREVER IN YOUR KISS
EXTD=
EXTT0=
EXTT1=
EXTT2=
EXTT3=
EXTT4=
EXTT5=
EXTT6=
EXTT7=
EXTT8=
EXTT9=
EXTT10=
EXTT11=
EXTT12=
EXTT13=
EXTT14=
PLAYORDER=
